<?xml version="1.0" standalone="no"?>
<!DOCTYPE svg PUBLIC "-//W3C//DTD SVG 1.0//EN" "http://www.w3.org/TR/2001/REC-SVG-20010904/DTD/svg10.dtd">
<svg xmlns="http://www.w3.org/2000/svg" xmlns:xlink="http://www.w3.org/1999/xlink" id="body_1" width="30" height="30">

<g transform="matrix(0.46875 0 0 0.46875 0 0)">
	<g>
        <path d="M17.89 14.58C 19.68666 11.495672 22.58407 9.205611 26 8.17C 30.27209 6.8331985 34.894733 7.191265 38.91 9.17C 40.973404 10.462246 42.772064 12.135337 44.21 14.1C 44.21 14.1 50.41 15.21 54.809998 18.82C 59.209995 22.43 61.409996 26.189999 61.28 29.67C 61.15 33.15 57.329998 37.41 55.55 38.92C 54.18816 40.02809 52.743984 41.03099 51.23 41.92L51.23 41.92L54 49.78C 55.491642 50.123608 56.65639 51.288357 57 52.78C 57.49 55.25 54.44 56.48 52.72 55.399998C 51.000004 54.319996 50.99 53.269997 51.18 52.35C 51.343468 51.674587 51.59213 51.022694 51.920002 50.41C 51.920002 50.41 46.4 44 46.31 44C 46.22 44 45.31 44.92 41.190002 45.63C 39.10927 46.01646 37.009758 46.293507 34.9 46.460003L34.9 46.460003L34.620003 49.730003C 35.55373 50.271694 36.02753 51.356983 35.79 52.410004C 35.54 54.410004 32.25 54.720005 30.86 53.670002C 29.470001 52.62 30 50.870003 30.460001 50.090004C 30.758486 49.59826 31.23471 49.240196 31.79 49.090004L31.79 49.090004L31.080002 46.440002C 29.168135 46.32313 27.270536 46.03531 25.410002 45.58C 21.930002 44.780003 20.140001 44.29 20.140001 44.29L20.140001 44.29L13.73 52C 14.578483 52.645134 14.933923 53.75139 14.62 54.77C 14.25 56.77 11.04 57.14 9.38 55.77C 7.7200003 54.4 9.07 52.13 9.72 51.58C 10.141598 51.233883 10.6380625 50.990784 11.17 50.870003L11.17 50.870003L15.17 41.960003C 12.129975 40.397423 9.44422 38.22567 7.28 35.58C 3.53 31 2.51 25.59 2.69 23.92C 2.8700001 22.25 6.3900003 18.71 9.99 17.08C 12.535738 15.991695 15.181634 15.154388 17.89 14.58z" stroke="none" fill="#1D1D1B" fill-rule="nonzero" />
        <path d="M16.47 16.28C 16.59 16.34 16.65 16.59 16.65 16.59C 15.934912 18.429655 15.41864 20.340534 15.11 22.29C 14.936734 23.841873 15.010992 25.411419 15.33 26.94C 15.45 27.09 18.33 31.16 26.09 32.36C 31.668634 33.197685 37.368164 32.627045 42.67 30.7C 44.081436 30.088531 45.33613 29.165462 46.34 28C 46.78117 27.285276 47.010067 26.459862 47 25.62C 47.0962 24.029934 46.992046 22.434078 46.69 20.87C 46.428574 19.467037 46.09479 18.078499 45.69 16.710001C 47.87088 17.149351 49.956516 17.972095 51.85 19.140001C 54.129997 20.800001 58.41 23.980001 58.23 28.260002C 58.05 32.54 52.84 35.38 50.4 36.4C 47.960003 37.420002 39.71 41 30.25 40.2C 20.79 39.4 16.810001 38.07 11.450001 34.34C 6.09 30.61 5.290001 28.130001 4.850001 26.2C 4.08 22.78 7.5 20.13 9.57 19C 11.808014 17.943413 14.113012 17.034775 16.47 16.28z" stroke="none" fill="#8EC480" fill-rule="nonzero" />
        <path d="M17.12 26.23C 16.747135 23.38929 17.162256 20.500742 18.320002 17.88C 20.2 13.966666 22.866669 11.376666 26.320002 10.109999C 29.877855 8.74922 33.82764 8.838987 37.32 10.359999C 40.501278 11.75358 42.928066 14.450012 43.98 17.759998C 44.646126 20.649265 44.981617 23.604939 44.98 26.57C 44.97411 26.879381 44.89893 27.183506 44.76 27.46C 44.76 27.46 39.64 22.9 39.43 22.9C 39.22 22.9 38.6 23.39 38.78 23.609999C 38.96 23.829998 44 27.68 43.87 27.9C 43.430202 28.19852 42.952694 28.437275 42.45 28.609999C 42.45 28.609999 38.600002 25.189999 38.32 25.189999C 38.039997 25.189999 37.579998 25.679998 37.7 25.779999C 37.820004 25.88 41.77 28.919998 41.61 29.079998C 41.12656 29.3698 40.594654 29.56969 40.04 29.669998C 39.89 29.609999 37.3 26.96 37.04 26.989998C 36.780003 27.019997 36.39 27.299997 36.52 27.479998C 36.65 27.659998 39.28 29.9 39.09 30C 38.9 30.1 37.33 30.46 37.33 30.46C 37.33 30.46 35.390003 28.669998 35.260002 28.669998C 35.13 28.669998 34.550003 28.849998 34.61 29.069998C 34.67 29.289997 36.24 30.729998 36.12 30.799997C 32.217266 31.7148 28.139673 31.555845 24.32 30.339998C 17.86 28.36 17.12 26.23 17.12 26.23z" stroke="none" fill="#E6E4DA" fill-rule="nonzero" />
        <path d="M39.62 20C 41.156357 21.096714 42.619488 22.29261 44 23.58C 43.99802 23.795412 43.946705 24.007505 43.85 24.2C 43.85 24.2 39.43 21 39.4 20.84C 39.398926 20.545618 39.47476 20.25606 39.62 20z" stroke="none" fill="#1D1D1B" fill-rule="nonzero" />
        <path d="M40.14 18.59C 40.14 18.59 40.51 17.97 40.66 17.94C 41.78741 18.699566 42.830044 19.577923 43.77 20.560001C 43.77 20.810001 43.83 21.27 43.77 21.210001C 43.71 21.150002 40.17 18.59 40.14 18.59z" stroke="none" fill="#1D1D1B" fill-rule="nonzero" />
        <path d="M40.88 15.54C 41.568806 15.824915 42.212273 16.208977 42.79 16.68C 42.88 16.93 42.97 17.27 42.850002 17.300001C 42.107506 17.016699 41.4023 16.643946 40.750004 16.19C 40.7 16 40.88 15.54 40.88 15.54z" stroke="none" fill="#1D1D1B" fill-rule="nonzero" />
        <path d="M20.85 17C 21.264313 15.765583 21.947403 14.638487 22.85 13.7C 24.33 12.19 25.720001 11.51 25.960001 11.63C 26.2 11.75 26.330002 12.12 26.18 12.18C 25.0512 12.806581 24.079966 13.682061 23.34 14.74C 22.34 16.279999 22.2 17.51 21.98 17.539999C 21.574532 17.427795 21.19201 17.244999 20.85 17z" stroke="none" fill="#1D1D1B" fill-rule="nonzero" />
        <path d="M26.33 16.25C 26.63 16.17 26.95 16.59 26.88 17.14C 26.593054 19.041231 26.698555 20.9811 27.189999 22.84C 27.96 25.71 27.929998 27.62 27.589998 27.84C 26.150955 27.99673 24.695076 27.860668 23.309998 27.44C 21.549997 26.95 20.999998 26.44 21.059998 25.28C 21.34616 23.312849 22.05213 21.430267 23.129997 19.76C 23.960117 18.394432 25.046783 17.202492 26.33 16.25z" stroke="none" fill="#1D1D1B" fill-rule="nonzero" />
        <path d="M25.38 18.87C 25.529999 18.87 25.47 21.210001 25.929998 23.150002C 26.389997 25.090002 26.639997 26.420002 26.359999 26.600002C 25.275702 26.599133 24.196297 26.45454 23.149998 26.170002C 22.469997 26.020002 22.149998 25.860003 22.149998 25.400002C 22.359043 24.088745 22.721535 22.806604 23.229998 21.580002C 23.84 20.38 25 18.9 25.38 18.87z" stroke="none" fill="#FFFFFF" fill-rule="nonzero" />
        <path d="M7.23 26.54C 6.890923 25.399714 6.922435 24.18124 7.32 23.060001C 8.031058 21.622503 9.299308 20.538528 10.83 20.060001C 11.17 20.060001 11.38 20.52 11.26 20.61C 11.14 20.7 8.76 21.61 8.46 23.140001C 8.16 24.670002 8.98 26.590002 8.86 26.810001C 8.74 27.03 7.38 26.7 7.23 26.54z" stroke="none" fill="#1D1D1B" fill-rule="nonzero" />
        <path d="M52.44 21.73C 53.70759 22.470425 54.92366 23.295616 56.079998 24.199999C 56.106747 24.384018 56.00315 24.5622 55.829998 24.63C 54.575478 24.079306 53.37666 23.40957 52.25 22.63C 52.26292 22.32153 52.327133 22.017368 52.44 21.73z" stroke="none" fill="#1D1D1B" fill-rule="nonzero" />
        <path d="M51.61 24.51C 53.21367 25.590889 54.728447 26.798037 56.14 28.12C 56.14 28.37 56.05 28.58 55.89 28.58C 55.73 28.58 51.42 25.65 51.329998 25.5C 51.32893 25.15031 51.425938 24.80733 51.61 24.51z" stroke="none" fill="#1D1D1B" fill-rule="nonzero" />
        <path d="M50.62 27.1C 52.416924 28.064648 54.1296 29.178562 55.739998 30.43C 55.739998 30.61 55.489998 31.050001 55.399998 30.98C 55.309998 30.909998 49.91 28.24 50 28.05C 50.167465 27.709415 50.375656 27.390413 50.62 27.1z" stroke="none" fill="#1D1D1B" fill-rule="nonzero" />
        <path d="M48.65 29.29C 48.83 29.29 53.7 31.820002 53.65 32.030003C 53.600002 32.240005 53.47 32.520004 53.280003 32.460003C 53.090004 32.4 48 30.12 48.13 30C 48.260002 29.88 48.5 29.32 48.65 29.29z" stroke="none" fill="#1D1D1B" fill-rule="nonzero" />
        <path d="M47.08 31.66C 48.43461 32.378944 49.74373 33.180443 51 34.06C 50.85 34.18 50.78 34.280003 50.6 34.31C 49.220154 33.764004 47.88308 33.115524 46.6 32.370003C 46.698677 32.09721 46.863625 31.853224 47.08 31.66z" stroke="none" fill="#1D1D1B" fill-rule="nonzero" />
        <path d="M45.29 33.82C 46.49909 34.388794 47.64534 35.08258 48.71 35.89C 48.559998 35.98 48.34 36.17 48.19 36.17C 46.98647 35.65047 45.823257 35.042126 44.71 34.35C 44.86407 34.134655 45.061672 33.954086 45.29 33.82z" stroke="none" fill="#1D1D1B" fill-rule="nonzero" />
        <path d="M42.73 35.45C 43.602768 35.919044 44.43853 36.45393 45.23 37.05C 45.23 37.05 44.86 37.329998 44.739998 37.3C 43.901764 36.87671 43.09026 36.4025 42.309998 35.88C 42.3 35.79 42.58 35.51 42.73 35.45z" stroke="none" fill="#1D1D1B" fill-rule="nonzero" />
        <path d="M8.67 34.4C 8.81 34.260002 13.48 37.88 18.29 39.670002C 23.100002 41.460003 26.43 41.74 33 42C 38.639935 42.194675 44.24966 41.096676 49.4 38.79C 53.4 37 55.690002 35.370003 55.870003 35.58C 56.050003 35.79 53.590004 38.690002 49.870003 40.420002C 46.15 42.15 41.49 44.61 33.690002 44.640003C 25.890003 44.670006 20.36 43.49 16 40.94C 11.639999 38.389996 8.4 34.68 8.67 34.4z" stroke="none" fill="#C8DB89" fill-rule="nonzero" />
        <path d="M16.19 42.57C 17.210428 42.95407 18.160002 43.50489 19 44.2C 18.91 44.29 13.24 51.29 13.05 51.32C 12.860001 51.35 12.400001 51.32 12.400001 51.2C 12.400001 51.08 16 42.72 16.19 42.57z" stroke="none" fill="#FAB900" fill-rule="nonzero" />
        <path d="M11 52.16C 11.83 52.079998 13.65 52.84 13.59 54.16C 13.530001 55.48 11.43 55.67 10.4800005 55.24C 9.530001 54.810005 9.38 52.31 11 52.16z" stroke="none" fill="#FAB900" fill-rule="nonzero" />
        <path d="M32.16 46.64C 32.747326 46.627407 33.334892 46.647438 33.92 46.7C 33.8507 47.58011 33.72713 48.455128 33.55 49.32C 33.46 49.32 32.78 49.32 32.75 49.26C 32.72 49.199997 32.16 46.64 32.16 46.64z" stroke="none" fill="#FAB900" fill-rule="nonzero" />
        <path d="M31.91 50.43C 32.400993 50.195538 32.96894 50.182823 33.469933 50.395073C 33.970924 50.607327 34.35688 51.024178 34.53 51.54C 35.079998 53.02 32.77 53.54 31.939999 52.96C 31.109997 52.379997 30.93 50.77 31.91 50.43z" stroke="none" fill="#FAB900" fill-rule="nonzero" />
        <path d="M47.57 43.77C 48.439228 43.291622 49.35798 42.909367 50.31 42.63C 50.31 42.72 52.620003 49.29 52.440002 49.350002C 52.260002 49.410004 52.320004 49.690002 52.100002 49.350002C 51.88 49.010002 47.54 43.86 47.57 43.77z" stroke="none" fill="#FAB900" fill-rule="nonzero" />
        <path d="M53 51.23C 54.125107 51.10197 55.217125 51.661777 55.77 52.649998C 56.040173 53.285385 55.857502 54.022865 55.32199 54.45869C 54.786484 54.894516 54.02727 54.92359 53.46 54.53C 51.92 53.67 52.19 51.45 53 51.23z" stroke="none" fill="#FAB900" fill-rule="nonzero" />
	</g>
</g>
</svg>