<?xml version="1.0" standalone="no"?>
<!DOCTYPE svg PUBLIC "-//W3C//DTD SVG 1.0//EN" "http://www.w3.org/TR/2001/REC-SVG-20010904/DTD/svg10.dtd">
<svg xmlns="http://www.w3.org/2000/svg" xmlns:xlink="http://www.w3.org/1999/xlink" id="body_1" width="30" height="30">

<g transform="matrix(0.46875 0 0 0.46875 0 0)">
	<g>
        <path d="M59 19.15C 60.21 14.23 58.54 12.36 54 12.28C 51.028946 12.33296 48.11922 13.134338 45.54 14.61C 45.54 14.61 45.620003 14.74 44.25 13.07C 43.247417 12.039841 41.856647 11.480627 40.42 11.53C 40.42891 10.174487 40.131508 8.834476 39.55 7.6099997C 38.55 5.3199997 32.55 2.6099997 28.63 4.9399996C 24.71 7.2699995 23.05 14.82 22.88 14.7699995C 13.8 12.4 7.26 14.15 5.51 18.07C 3.7600002 21.99 7.3 25.28 7.3 25.28C 6.4143043 26.679605 6.5147214 28.487118 7.55 29.78C 9.3 32.2 12.55 31.490002 12.55 31.490002L12.55 31.490002L15 34.36C 15 34.36 8.17 41.36 6.42 44.36C 4.67 47.36 3.54 51.82 6.63 53.28C 8.624558 54.116177 10.879234 54.07261 12.84 53.16C 12.84 53.16 16.380001 57.16 19.630001 55.079998C 21.489616 53.96862 22.348671 51.73012 21.710001 49.659996L21.710001 49.659996L22.710001 49.199997C 22.710001 49.199997 24.460001 58.659996 30.710001 59.909996C 36.96 61.159996 39.25 49.659996 39.25 49.659996C 42.02512 50.59476 44.86641 51.320126 47.75 51.829994C 53.93 53 56.14 48.07 54.84 42C 53.88012 38.1519 51.74012 34.70063 48.72 32.13C 48.72 32.13 57.76 24.07 59 19.15zM21.25 48.15C 21.25 48.15 20.38 46.280003 17.46 46.780003C 15.561309 47.161472 13.91433 48.332172 12.93 50C 12.629517 50.57071 12.433113 51.190395 12.35 51.83C 12.35 51.83 9.02 52.83 7.6400003 51.29C 6.26 49.75 7.1800003 45.920002 9.43 42.75C 11.511848 40.128304 13.828056 37.701645 16.35 35.5C 17.307976 36.329334 18.30937 37.107086 19.35 37.83C 20.73 38.75 21.27 39.04 21.27 39.04C 21.223976 40.71063 21.30756 42.382294 21.52 44.04C 21.85 45.83 22.060001 47.670002 22.060001 47.670002zM20.92 34.280003C 21.05 35.610004 21.09 36.530003 21.09 36.530003C 21.09 36.530003 19.76 35.660004 19.26 35.280003C 18.888626 34.957184 18.553337 34.595074 18.26 34.2C 19.013573 33.239853 19.931042 32.420563 20.970001 31.78C 20.871754 32.59276 20.844982 33.412563 20.89 34.23zM21.42 24.160004C 21.14 27.69 21 29 21 29C 19.379051 30.127213 17.92191 31.4733 16.67 33C 15.592062 32.42423 14.674456 31.589106 14 30.57C 14 30.57 16.33 27.779999 15 25.2C 13.67 22.620003 11.21 23.37 10.38 23.58C 9.785887 23.75554 9.222545 24.022032 8.71 24.37C 8.71 24.37 5.83 20.7 8.21 18.45C 10.59 16.2 14.79 15.530001 18.42 15.910001C 22.05 16.29 22.5 16.91 22.5 16.91C 21.963596 19.281399 21.592712 21.68716 21.39 24.11zM41.629997 31.910004C 41.80488 30.877886 41.915085 29.835869 41.96 28.790005C 42.881203 29.333363 43.76034 29.945082 44.59 30.620005C 45.76 31.500004 46.05 31.790005 46.01 31.950005C 45.047714 33.0278 44.004692 34.030712 42.89 34.950005C 42.197098 35.511646 41.45779 36.01344 40.68 36.450005C 40.68 36.450005 41.3 33.57 41.59 31.86zM40 21.61L39.89 25L34.559998 21.54L36.44 20.29C 36.923702 20.71198 37.474655 21.049988 38.07 21.29C 38.69782 21.475224 39.346 21.582693 40 21.61zM28.55 7.4C 30.63 5.48 33.68 5.23 36.47 7.28C 39.260002 9.33 38.68 11.610001 38.68 11.610001C 38.68 11.610001 35.89 12.610001 35.47 14.780001C 35.21469 16.077238 35.241974 17.414263 35.550003 18.7L35.550003 18.7L33 20.15C 31.588932 19.136887 30.112343 18.218193 28.58 17.4C 26.33 16.23 24.96 15.69 24.96 15.69C 24.96 15.69 26.47 9.32 28.55 7.4zM23.59 22C 23.752192 20.576492 24.029768 19.16855 24.42 17.79C 25.7658 18.24925 27.064949 18.835205 28.3 19.54C 29.325668 19.990084 30.258303 20.627666 31.05 21.42C 31.05 21.42 28.59 23.09 26.509998 24.71C 24.429996 26.329998 23 27.36 23 27.36C 23 27.36 23.26 24.61 23.59 22zM23.8 44.21C 23.718658 43.36528 23.718658 42.514717 23.8 41.67L23.8 41.67L26.43 43.589996C 27.51 44.379997 28.35 44.969997 28.35 44.969997C 28.35 44.969997 26.52 45.889996 25.6 46.3C 25.206951 46.490543 24.8029 46.657505 24.39 46.8C 24.39 46.8 24 45 23.8 44.19zM33.629997 57.21C 31.169998 58.84 28.839996 57.92 27.259998 54.79C 26.164282 52.779625 25.378746 50.615185 24.929998 48.370003C 25.812202 47.903526 26.732126 47.51214 27.679998 47.200005C 28.51128 46.858776 29.316723 46.457726 30.09 46C 31.255136 46.963024 32.577934 47.71746 34 48.23L34 48.23L37.17 49.44C 37.17 49.44 36.09 55.53 33.64 57.15zM37.629997 45.04C 37.379997 46.46 37.17 47.21 37.17 47.21L37.17 47.21L34.17 46.21C 33.411404 45.87812 32.70954 45.429337 32.089996 44.879997C 33.174267 44.342865 34.22009 43.731407 35.219997 43.049995C 36.76 42.049995 38.1 41.049995 38.1 41.049995C 38.1 41.049995 37.93 43.57 37.68 45zM38.379997 38.5C 38.379997 38.5 30.759998 44.13 30.379997 43.96C 29.999996 43.789997 23.09 38.69 23 38.48C 22.91 38.27 22.75 29.86 23 29.61C 23.25 29.36 31.46 23.61 32.71 22.990002C 35.186974 24.375957 37.581093 25.905258 39.879997 27.570002C 39.89 27.86 38.43 38.44 38.43 38.44zM52.67 42.67C 53.339996 47.42 53.8 49.21 50.46 49.67C 47.12 50.129997 39.46 47.8 39.46 47.8C 39.833904 45.982662 40.11096 44.146744 40.29 42.3C 40.420002 40.3 40.54 38.93 40.54 38.93C 40.54 38.93 43.22 37 44.8 35.65C 46.379997 34.300003 47.3 33.440002 47.3 33.440002C 47.3 33.440002 52.05 37.86 52.72 42.61zM47.67 30.669998C 46.55135 29.693832 45.383118 28.775936 44.17 27.919998L44.17 27.919998L42 26.4L42.38 21.279999C 43.38739 20.732262 44.24827 19.950272 44.89 19C 45.27328 18.215456 45.513706 17.368889 45.6 16.5C 45.6 16.5 54.6 12.04 56.809998 14.83C 59.019997 17.619999 51.44 27.16 49.94 28.619999C 48.44 30.079998 47.76 30.61 47.76 30.61z" stroke="none" fill="#1D1D1B" fill-rule="nonzero" />
        <path d="M39.3 13.36C 41.23 12.719999 44.3 14.36 43.3 17.439999C 42.935246 18.636993 41.92665 19.525969 40.693325 19.737516C 39.46 19.949064 38.212807 19.447018 37.47 18.439999C 36.89311 17.550861 36.76527 16.443079 37.124485 15.445916C 37.4837 14.448752 38.28862 13.676983 39.3 13.36z" stroke="none" fill="#E6E4DA" fill-rule="nonzero" />
        <path d="M39.43 14.53C 39.54 14.45 40.260002 14.95 40.14 15.07C 40.019997 15.19 39.22 15.65 39.43 16.4C 39.64 17.15 40.56 17.689999 40.56 17.86C 40.56 18.030003 40.140003 18.69 39.940002 18.61C 39.205204 18.078487 38.69808 17.289228 38.520004 16.400002C 38.504837 15.66657 38.8435 14.970641 39.43 14.53z" stroke="none" fill="#1D1D1B" fill-rule="nonzero" />
        <path d="M29.55 27.53C 31.55 26.53 39.17 27.53 36.629997 34.61C 34.46 40.690002 25.629997 38.36 25.629997 34.82C 25.629997 31.279999 26.39 29.11 29.55 27.53z" stroke="none" fill="#1D1D1B" fill-rule="nonzero" />
        <path d="M30.26 28.9C 31.52 28.289999 33.47 29.15 34.38 29.779999C 35.29 30.409998 35.38 32.66 35.38 32.66C 35.38 32.66 34.260002 31.58 34.09 31.66C 33.92 31.74 33.59 32.12 33.72 32.24C 33.850002 32.360004 35.22 33.41 35.22 33.66C 35.120888 34.06349 34.980137 34.45559 34.800003 34.829998C 34.176563 34.121456 33.50854 33.453438 32.800003 32.829998C 32.630005 32.829998 32.180004 33.289997 32.180004 33.289997L32.180004 33.289997L34.390003 35.579998L33.680004 36.079998C 33.680004 36.079998 31.470005 33.539997 31.350004 33.539997C 31.230003 33.539997 30.770004 33.709995 30.850004 33.87C 31.619946 34.71229 32.3379 35.600548 33 36.53C 32.82037 36.651936 32.625328 36.74946 32.42 36.82C 32.42 36.82 30.21 34.4 30.089998 34.4C 29.969997 34.4 29.299997 34.730003 29.419998 34.9C 29.539999 35.07 31.22 37 31.22 37C 29.904459 36.87751 28.698654 36.21486 27.89 35.17C 26.68 33.48 27 30.48 30.26 28.9z" stroke="none" fill="#FAB900" fill-rule="nonzero" />
        <path d="M30.59 29.86C 30.89 29.86 31.01 30.650002 30.92 30.78C 30.83 30.91 30.09 31.03 29.59 31.53C 29.09 32.03 29.17 33.07 28.97 33.11C 28.69013 33.13548 28.410275 33.06109 28.179998 32.9C 28.178988 32.19171 28.380207 31.497856 28.759998 30.900002C 29.197803 30.312767 29.86144 29.93562 30.59 29.86z" stroke="none" fill="#1D1D1B" fill-rule="nonzero" />
        <path d="M16.55 48.69C 17.849998 48.129997 19.09 48.48 19.43 49.98C 19.603605 50.98227 19.531546 52.011692 19.220001 52.98C 18.840229 52.273174 18.39495 51.603584 17.890001 50.98C 17.680002 50.98 17.180002 51.31 17.35 51.48C 17.519999 51.649998 18.810001 53.31 18.68 53.48C 18.55 53.649998 17.970001 53.73 17.970001 53.73C 17.536947 52.883705 17.035275 52.074337 16.470001 51.309998C 16.260002 51.309998 15.680001 51.39 15.800001 51.6C 16.221691 52.33269 16.582886 53.098553 16.880001 53.89C 16.76 53.89 14.880001 53.52 14.880001 51.809998C 14.880001 50.099995 15.3 49.23 16.55 48.69z" stroke="none" fill="#CBE7F5" fill-rule="nonzero" />
        <path d="M10.51 25.23C 11.96 24.789999 13.43 25.81 13.51 26.77C 13.471029 27.518425 13.258788 28.247578 12.89 28.900002C 12.89 28.900002 11.89 26.900002 11.68 26.900002C 11.47 26.900002 11.1 27.150002 11.18 27.320002C 11.593675 27.928293 11.954973 28.570602 12.26 29.240002C 12.041487 29.398 11.80267 29.525818 11.55 29.62C 11.272051 28.994045 10.937313 28.394865 10.55 27.830002C 10.38 27.830002 9.84 28.000002 9.97 28.160002C 10.279203 28.650974 10.518187 29.182795 10.68 29.740002C 9.849189 29.469889 9.236788 28.761196 9.09 27.9C 9 26.73 9.26 25.61 10.51 25.23z" stroke="none" fill="#FFE19B" fill-rule="nonzero" />
	</g>
</g>
</svg>