<?xml version="1.0" standalone="no"?>
<!DOCTYPE svg PUBLIC "-//W3C//DTD SVG 1.0//EN" "http://www.w3.org/TR/2001/REC-SVG-20010904/DTD/svg10.dtd">
<svg xmlns="http://www.w3.org/2000/svg" xmlns:xlink="http://www.w3.org/1999/xlink" id="body_1" width="30" height="30">

<g transform="matrix(0.46875 0 0 0.46875 0 0)">
	<g>
        <path d="M18.68 10.74C 22.117462 8.733734 25.962557 7.527231 29.93 7.21C 34.18 7 38.08 8 43.49 10.59C 48.9 13.18 51.9 15.65 54.18 19.900002C 56.46 24.150003 57.71 27.280003 56.46 32.81C 55.21 38.34 54.83 43.9 52.61 47.74C 50.39 51.58 46.670002 54.24 41.170002 55.620003C 35.670002 57.000004 27.86 57.9 21.11 54.18C 14.360001 50.46 9.61 44.93 7.86 37.28C 6.1100006 29.629997 7.55 25.649998 8.860001 22.059998C 10.819071 17.321552 14.26565 13.348513 18.68 10.74z" stroke="none" fill="#1D1D1B" fill-rule="nonzero" />
        <path d="M20.55 11.31C 22.938461 9.995186 25.54277 9.118052 28.24 8.72C 32.239998 8.25 38.71 10.030001 39.4 10.35C 40.090004 10.67 40.65 10.85 40.4 11.04C 40.15 11.23 37.870003 13.23 37.06 13.35C 36.25 13.470001 33.440002 12.79 31.310001 12.88C 29.18 12.97 27.750002 13.38 26.720001 13.38C 25.69 13.38 24.220001 12.26 23.220001 12.16C 22.220001 12.059999 20.08 11.56 20.55 11.31z" stroke="none" fill="#4EAE4D" fill-rule="nonzero" />
        <path d="M18.58 12.87C 19.960512 12.460249 21.444344 12.581524 22.74 13.21C 24.36 14.09 24.18 14.46 26.4 14.43C 28.619999 14.400001 29.68 14.02 30.34 14.18C 31 14.34 33.75 15.52 36.18 15.06C 37.720196 14.806229 39.183228 14.208026 40.46 13.31C 41.18 12.84 41.62 12.06 42.05 12.120001C 42.48 12.180001 46.46 14.530001 46.39 14.780001C 45.956806 15.421018 45.36398 15.938021 44.67 16.28C 43.410416 17.125303 42.44018 18.336355 41.89 19.75C 41.39 21.22 41.11 25.630001 41.77 26.06C 42.43 26.489998 44.11 25.869999 44.77 26.369999C 45.43 26.869999 45.58 28.429998 46.68 28.56C 47.78 28.69 48.24 27.869999 49.24 28.56C 50.24 29.25 50.24 29.779999 51.800003 29.81C 53.360004 29.84 54.800003 29.5 54.890003 29.81C 54.98798 30.29163 54.94635 30.791227 54.770004 31.25C 54.610004 31.34 49.330006 31.97 48.080006 32.03C 46.830006 32.089996 47.080006 32.37 46.390007 32.03C 45.70001 31.689999 44.61 30.4 43 30.15C 41.39 29.9 36.47 29.59 35.5 29.59C 34.53 29.59 34.25 29.59 34.16 30.06C 34.07 30.529999 34.25 35.25 33.75 36.78C 33.25 38.309998 33.59 40.84 35.41 41.559998C 37.23 42.279995 39.1 42.649998 39.35 43.309998C 39.6 43.969997 40.48 48.309998 41.26 49.78C 42.039997 51.25 43.14 52.94 42.76 53.25C 40.849102 54.061142 38.82598 54.57704 36.76 54.78C 34.840805 55.020004 32.899193 55.020004 30.979998 54.78C 30.979998 54.78 29.819998 48.78 29.509998 48.25C 29.176064 47.51771 29.034927 46.7122 29.099998 45.91C 29.229998 45.5 31.439999 41.04 31.159998 39.91C 30.879997 38.78 30.439999 37.63 29.409998 37.35C 28.379997 37.069996 26.659998 37.35 23.879997 37.35C 22.090113 37.37165 20.3022 37.224327 18.539997 36.91C 17.979998 36.79 17.669996 36.91 17.419996 36.63C 17.169996 36.350002 15.139997 32.63 15.419996 32.29C 15.699996 31.95 18.539997 31.130001 18.669996 30.480001C 18.799995 29.830002 18.609997 28.230001 19.329996 28.170002C 20.049995 28.110003 23.199997 28.550001 24.199997 28.010002C 25.199997 27.470003 25.319998 26.260002 25.359997 25.200003C 25.399996 24.140003 24.989996 21.790003 24.519997 21.360003C 24.049997 20.930002 19.519997 19.550003 17.799997 18.640003C 16.079998 17.730003 14.61 17 14.8 16.4C 15.795811 14.968932 17.084244 13.765714 18.58 12.87z" stroke="none" fill="#85BFE9" fill-rule="nonzero" />
        <path d="M20.49 15C 21.03 14.92 21.08 15.34 20.9 15.72C 20.72 16.1 20.9 17.44 21.49 17.41C 23.604332 16.932919 25.744637 16.578983 27.9 16.35C 30.63672 16.48435 33.335766 17.044401 35.9 18.01C 36.65 18.42 36.99 20.01 37.06 20.48C 36.338337 22.412659 35.413128 24.263073 34.3 26C 34.02 26.16 31.109999 25 29.019999 24C 26.929998 23 26.019999 22.53 25.929998 22.13C 25.839998 21.729998 25.619999 20.539999 25.429998 20.439999C 25.239998 20.339998 22.429998 20.159998 21.089998 19.349998C 19.749998 18.539999 18.529999 17.23 18.779999 16.659998C 19.029999 16.089996 20.05 15 20.49 15z" stroke="none" fill="#1D1D1B" fill-rule="nonzero" />
        <path d="M24.36 17.87C 26.776026 17.544786 29.230555 17.649738 31.61 18.18C 34.8 18.81 35.3 19.34 35.2 20.12C 35.100002 20.900002 33.920002 24.12 33.48 23.960001C 31.663067 23.34945 29.889086 22.617805 28.17 21.77C 27.95 21.460001 27.89 19.9 26.95 19.61C 26.010002 19.320002 24.080002 18.74 23.42 18.49C 22.759998 18.24 22.92 17.99 23.08 17.99C 23.24 17.99 24.36 17.87 24.36 17.87z" stroke="none" fill="#4EAE4D" fill-rule="nonzero" />
        <path d="M47.58 15.21C 47.79 15.14 50.52 16.27 52.390003 19.84C 54.260006 23.41 54.860004 27.78 54.640003 28.18C 54.420002 28.58 53.730003 28.62 53.110004 28.43C 52.490005 28.24 50 26.87 49.46 26.87C 48.92 26.87 48.05 27.34 47.68 26.87C 47.31 26.400002 46.18 25 45.05 25C 43.92 25 43.68 25.19 43.489998 24.94C 43.299995 24.69 42.679996 19.41 43.859997 18.44C 45.039997 17.470001 46.079998 16.85 46.549995 16.44C 47.019993 16.03 47.3 15.31 47.58 15.21z" stroke="none" fill="#4EAE4D" fill-rule="nonzero" />
        <path d="M35.71 31C 36.079998 31 41.43 30.59 42.489998 31.63C 43.549995 32.67 44.429996 33.79 45.329998 33.76C 46.23 33.729996 54.519997 33.01 54.519997 33.32C 54.519997 33.63 53.579998 40.82 52.149998 44.48C 51.013966 47.310417 49.095936 49.759113 46.62 51.54C 45.46 52.2 44.28 52.45 44.18 52.260002C 43.13848 50.399864 42.370583 48.399284 41.9 46.320004C 41.210003 43.100002 41.030003 41.600002 39.960003 41.320004C 38.890003 41.040005 36.270004 40.410004 35.770004 39.790005C 35.431774 39.22248 35.239376 38.580017 35.210003 37.920006C 35.210003 37.920006 35.49 34.050007 35.49 33.200005C 35.49 32.350002 35.52 31 35.71 31z" stroke="none" fill="#4EAE4D" fill-rule="nonzero" />
        <path d="M17.43 38.21C 18.969786 38.82182 20.613153 39.1308 22.27 39.12C 25.58 39.18 28.83 38.809998 29.18 39.21C 29.53 39.61 29.460001 40.989998 28.74 42.3C 28.286322 43.135986 27.888779 44.00123 27.55 44.89C 26.563309 43.975708 25.506783 43.139847 24.39 42.39C 24.118513 42.500957 23.972578 42.797115 24.05 43.079998C 24.179998 43.359997 27.05 45.3 27.18 45.55C 27.204094 46.134865 27.173965 46.720688 27.09 47.3C 26.148413 46.438747 25.145798 45.646683 24.09 44.93C 23.72 44.87 23.47 45.77 23.59 45.93C 23.710001 46.09 27.12 48.43 27.59 48.84C 28.048977 49.61298 28.335514 50.476 28.43 51.37C 28.34 51.37 24.52 48.28 24.310001 48.25C 24.100002 48.22 24.03 49.25 24.03 49.25C 24.03 49.25 28.53 52.44 28.69 52.69C 28.92534 53.292545 29.073502 53.925594 29.130001 54.57C 27.915947 54.33993 26.717056 54.036034 25.54 53.66C 24.29 53.19 23.2 52.94 23.2 52.85C 23.2 52.76 22 49.06 20.36 47.46C 19.455906 46.68869 18.661842 45.79705 18 44.81C 17.815113 43.577595 17.701588 42.335503 17.66 41.09C 17.61 40.24 17.24 38.21 17.43 38.21z" stroke="none" fill="#4EAE4D" fill-rule="nonzero" />
        <path d="M10.52 38.4C 10.71 38.030003 13.08 38.65 14.210001 39.09C 15.340002 39.53 15.710001 40.09 15.740001 40.97C 15.77 41.850002 15.620001 45.63 16.400002 46.31C 17.636763 47.178917 18.678905 48.295982 19.460001 49.59C 19.912079 50.259712 20.249996 50.99975 20.460001 51.78C 18.136616 50.36747 16.125645 48.49601 14.550001 46.28C 11.36 42.15 10.43 38.59 10.52 38.4z" stroke="none" fill="#85BFE9" fill-rule="nonzero" />
        <path d="M9.61 36.18C 8.675028 33.033424 8.63348 29.688831 9.49 26.52C 10.86 20.83 13.49 17.8 13.709999 17.830002C 13.929998 17.860004 19.119999 20.830002 21.21 21.830002C 23.3 22.830002 23.429998 22.830002 23.59 23.270002C 23.70856 24.386265 23.644386 25.514387 23.4 26.610003C 23.21 26.700003 19.46 26.520002 18.4 26.610003C 17.34 26.700003 17 28.21 17.08 28.81C 17.16 29.41 17.21 29.689999 16.96 29.869999C 16.71 30.05 13.369999 30.96 13.179999 31.869999C 12.99 32.78 15.559999 37.25 15.179999 37.37C 14.799999 37.489998 10.61 37.21 9.61 36.18z" stroke="none" fill="#4EAE4D" fill-rule="nonzero" />
        <path d="M11.36 25.18C 11.622091 23.923967 12.010746 22.697697 12.5199995 21.52C 13.0199995 20.77 13.24 20.61 13.459999 20.68C 13.679998 20.75 14.299999 21.02 14.239999 21.210001C 14.179998 21.400002 13.119999 23.460001 12.829999 24.37C 12.539999 25.28 12.829999 25.28 12.419999 25.37C 12.009999 25.460001 11.49 25.4 11.36 25.18z" stroke="none" fill="#1D1D1B" fill-rule="nonzero" />
        <path d="M40 15.59C 40.16 15.46 42.53 14.87 42.69 15.09C 42.85 15.31 43.03 15.53 42.879997 15.650001C 42.046085 16.063908 41.166843 16.37936 40.26 16.59C 40.05 16.49 39.8 15.74 40 15.59z" stroke="none" fill="#1D1D1B" fill-rule="nonzero" />
        <path d="M38.46 22.93C 38.62 23.09 39.93 25.210001 39.77 25.4C 39.61 25.589998 39.77 25.869999 39.43 25.71C 38.766014 25.08887 38.244102 24.331585 37.9 23.49C 38 23.24 38.46 22.93 38.46 22.93z" stroke="none" fill="#1D1D1B" fill-rule="nonzero" />
        <path d="M37 24.37C 37.651154 24.998806 38.228233 25.700026 38.72 26.460001C 38.72 26.650002 38.72 26.93 38.41 26.84C 37.694386 26.33151 37.066193 25.710073 36.55 25C 36.55 24.84 37 24.34 37 24.37z" stroke="none" fill="#1D1D1B" fill-rule="nonzero" />
        <path d="M49.33 19.65C 50.23472 19.890285 51.0839 20.304686 51.83 20.869999C 51.83 21.06 51.920002 21.56 51.670002 21.46C 51.420002 21.359999 49.140003 20.46 49.050003 20.339998C 48.960003 20.219997 49.3 19.68 49.33 19.65z" stroke="none" fill="#1D1D1B" fill-rule="nonzero" />
        <path d="M49.11 22C 49.190002 21.9 53.11 24.19 53.11 24.53C 53.11 24.87 53.45 25.12 53.05 25.060001C 51.578278 24.453888 50.157112 23.731598 48.8 22.900002C 48.68 22.71 49 22.15 49.11 22z" stroke="none" fill="#1D1D1B" fill-rule="nonzero" />
        <path d="M48.74 24C 50.4422 24.70219 52.064716 25.58385 53.58 26.630001C 53.640003 26.910002 53.86 27.220001 53.460003 27.19C 51.76152 26.512863 50.111076 25.721054 48.520004 24.82C 48.467907 24.527557 48.54852 24.22709 48.74 24z" stroke="none" fill="#1D1D1B" fill-rule="nonzero" />
        <path d="M49.68 35.53C 50.786495 36.302357 51.767918 37.239933 52.59 38.309998C 52.5 38.559998 52.59 38.69 52.31 38.589996C 51.189297 37.78028 50.14496 36.869827 49.190002 35.869995C 49.24 35.71 49.52 35.59 49.68 35.53z" stroke="none" fill="#1D1D1B" fill-rule="nonzero" />
        <path d="M48.11 37.43C 49.30571 38.392696 50.422607 39.4494 51.45 40.59C 51.45 40.84 51.33 41.06 51.2 41.03C 49.99684 40.0967 48.84827 39.09504 47.760002 38.03C 47.862843 37.822247 47.979782 37.62178 48.11 37.43z" stroke="none" fill="#1D1D1B" fill-rule="nonzero" />
        <path d="M47.11 39.46C 48.331154 40.44894 49.450077 41.557816 50.45 42.77C 50.39 43.02 50.510002 43.18 50.2 43.15C 48.966377 42.169434 47.790993 41.1176 46.68 40C 46.68 40 47.05 39.46 47.11 39.46z" stroke="none" fill="#1D1D1B" fill-rule="nonzero" />
        <path d="M46.33 41.12C 47.55436 42.118366 48.694824 43.215355 49.74 44.399998C 49.74 44.649998 49.65 44.809998 49.52 44.71C 48.187355 43.747173 46.905647 42.715797 45.68 41.62C 45.798138 41.35411 46.042706 41.16598 46.33 41.12z" stroke="none" fill="#1D1D1B" fill-rule="nonzero" />
        <path d="M45.71 44.12C 46.84179 44.892494 47.87014 45.80658 48.77 46.84C 48.77 47.06 48.61 47.22 48.52 47.18C 47.40777 46.411064 46.3425 45.576218 45.33 44.68C 45.3 44.49 45.64 44.15 45.71 44.12z" stroke="none" fill="#1D1D1B" fill-rule="nonzero" />
        <path d="M45 45.93C 45.17 45.93 48.25 48.62 48 48.87C 47.75 49.12 47.88 49.25 47.63 49.149998C 46.510178 48.35032 45.465824 47.449898 44.510002 46.46C 44.61 46.31 44.83 45.93 45 45.93z" stroke="none" fill="#1D1D1B" fill-rule="nonzero" />
        <path d="M35.18 43.43C 35.27 43.29 36.49 43.74 36.46 44.02C 36.429996 44.3 36.46 44.36 36.3 44.36C 35.77044 44.292736 35.25439 44.14433 34.77 43.920002C 34.77 43.81 35.11 43.53 35.18 43.43z" stroke="none" fill="#1D1D1B" fill-rule="nonzero" />
        <path d="M33.14 47.28C 33.509823 47.118595 33.93018 47.118595 34.3 47.28C 34.77 47.5 35.46 48.28 36.079998 48.37C 36.699997 48.46 37.17 48.09 37.329998 48.18C 37.50011 48.268948 37.570503 48.47573 37.489998 48.65C 37.399998 48.81 37.329998 48.960003 37.079998 49.030003C 36.57775 49.168247 36.041782 49.111076 35.579998 48.870003C 35 48.49 34.64 48 34 48C 33.36 48 33.44 48.13 33.31 48C 33.180004 47.87 32.89 47.49 33.14 47.28z" stroke="none" fill="#1D1D1B" fill-rule="nonzero" />
        <path d="M26 40.15C 26.25 40.31 28.06 41.9 28 42.15C 27.94 42.4 27.81 42.65 27.63 42.59C 26.829723 42.08951 26.102783 41.480366 25.47 40.78C 25.46 40.53 26 40.15 26 40.15z" stroke="none" fill="#1D1D1B" fill-rule="nonzero" />
        <path d="M24.21 30.43C 24.339998 30.43 27.019999 34.62 26.8 34.84C 26.58 35.06 26.46 35.28 26.33 35.15C 25.300556 33.759235 24.352303 32.310143 23.49 30.810001C 23.684782 30.611729 23.936398 30.478931 24.21 30.43z" stroke="none" fill="#1D1D1B" fill-rule="nonzero" />
        <path d="M25.24 30C 25.24 29.89 25.83 29.63 26.02 29.81C 26.587051 30.656721 27.04721 31.570324 27.390001 32.53C 27.300001 32.719997 27.390001 33 27.140001 32.809998C 26.415474 31.938343 25.779032 30.997082 25.24 30z" stroke="none" fill="#1D1D1B" fill-rule="nonzero" />
        <path d="M30.74 29.71C 30.82 29.589998 31.74 28.71 32.02 28.71C 32.300003 28.71 33.02 28.71 32.93 28.929998C 32.84 29.149998 31.52 30.839998 31.27 30.679998C 30.98898 30.425705 30.802198 30.08386 30.74 29.71z" stroke="none" fill="#1D1D1B" fill-rule="nonzero" />
	</g>
</g>
</svg>